<?xml version="1.0" encoding="utf-8"?>
<!-- Generator: Adobe Illustrator 15.0.0, SVG Export Plug-In  -->
<!DOCTYPE svg PUBLIC "-//W3C//DTD SVG 1.1//EN" "http://www.w3.org/Graphics/SVG/1.1/DTD/svg11.dtd" [
	<!ENTITY ns_flows "http://ns.adobe.com/Flows/1.0/">
]>
<svg version="1.1"
	 xmlns="http://www.w3.org/2000/svg" xmlns:xlink="http://www.w3.org/1999/xlink" xmlns:a="http://ns.adobe.com/AdobeSVGViewerExtensions/3.0/"
	 x="0px" y="0px" width="34px" height="34px" viewBox="-1 -1 34 34" enable-background="new -1 -1 34 34" xml:space="preserve">
<defs>
</defs>
<path fill="#3090E9" d="M14,0h-2C5.373,0,0,5.373,0,12v2c0,6.627,5.373,12,12,12h2c6.627,0,12-5.373,12-12v-2
	C26,5.373,20.627,0,14,0z M13,24C6.925,24,2,19.076,2,13C2,6.925,6.925,2,13,2c6.074,0,11,4.925,11,11C24,19.076,19.074,24,13,24z"
	/>
<path fill="#3090E9" d="M5,13c0,1.391,0.368,2.69,0.992,3.83c0.595-0.328,1.181-0.646,1.812-0.857C7.3,15.095,7,14.085,7,13
	c0-3.313,2.687-6,6-6V5C8.582,5,5,8.582,5,13z"/>
<path fill="#3090E9" d="M31.689,30.264c0.404,0.405,0.415,1.048,0.024,1.439l0,0c-0.392,0.391-1.034,0.38-1.439-0.024l-8.775-8.775
	c-0.404-0.405-0.415-1.048-0.024-1.439l0,0c0.392-0.391,1.034-0.38,1.439,0.024L31.689,30.264z"/>
</svg>
