<?xml version="1.0" encoding="utf-8"?>
<!-- Generator: Adobe Illustrator 15.0.0, SVG Export Plug-In  -->
<!DOCTYPE svg PUBLIC "-//W3C//DTD SVG 1.1//EN" "http://www.w3.org/Graphics/SVG/1.1/DTD/svg11.dtd" [
	<!ENTITY ns_flows "http://ns.adobe.com/Flows/1.0/">
]>
<svg version="1.1"
	 xmlns="http://www.w3.org/2000/svg" xmlns:xlink="http://www.w3.org/1999/xlink" xmlns:a="http://ns.adobe.com/AdobeSVGViewerExtensions/3.0/"
	 x="0px" y="0px" width="30px" height="30px" viewBox="-4.5 -3 30 30" enable-background="new -4.5 -3 30 30" xml:space="preserve">
<defs>
</defs>
<path d="M15.75,5.506c-2.083,0-3.188,1.041-4.825,1.02c-1.637,0.021-2.742-1.02-4.825-1.02c-1.658,0-3.762,1.02-4.718,2.508
	c-1.764,2.721-1.594,5.676-0.85,8.736C1.34,20.004,4.188,24,6.441,24c1.849,0,2.678-0.999,4.484-0.999
	c1.806,0,2.614,0.999,4.442,0.999c2.083,0,4.568-3.423,5.632-6.463c-2.041-0.808-3.422-2.827-3.422-4.974
	c0-2.126,1.084-3.763,2.742-4.698C19.299,6.483,17.344,5.506,15.75,5.506L15.75,5.506z M15.197,0
	c-2.995,0.319-5.227,2.827-5.036,5.676C13.157,5.378,15.368,2.849,15.197,0L15.197,0z"/>
</svg>
