<?xml version="1.0" encoding="utf-8"?>
<!-- Generator: Adobe Illustrator 15.0.0, SVG Export Plug-In  -->
<!DOCTYPE svg PUBLIC "-//W3C//DTD SVG 1.1//EN" "http://www.w3.org/Graphics/SVG/1.1/DTD/svg11.dtd" [
	<!ENTITY ns_flows "http://ns.adobe.com/Flows/1.0/">
]>
<svg version="1.1"
	 xmlns="http://www.w3.org/2000/svg" xmlns:xlink="http://www.w3.org/1999/xlink" xmlns:a="http://ns.adobe.com/AdobeSVGViewerExtensions/3.0/"
	 x="0px" y="0px" width="22px" height="44px" viewBox="-1 -1 22 44" enable-background="new -1 -1 22 44" xml:space="preserve">
<defs>
</defs>
<path id="Shape_4_" fill="#44B8C8" d="M20,29.244l-7.191-0.617L10,22l-2.81,6.627L0,29.244l5.455,4.727L3.82,41L10,37.271L16.18,41
	l-1.635-7.029L20,29.244L20,29.244z M10,35.396l-3.764,2.27l0.996-4.282L3.91,30.507l4.38-0.376L10,26.096l1.708,4.035l4.381,0.376
	l-3.321,2.877l0.996,4.282L10,35.396L10,35.396z"/>
<path id="Shape_1_" fill="#FFFFFF" d="M20,7.244l-7.191-0.617L10,0L7.19,6.627L0,7.244l5.455,4.727L3.82,19L10,15.271L16.18,19
	l-1.635-7.029L20,7.244L20,7.244z M10,13.396l-3.764,2.27l0.996-4.282L3.91,8.507l4.38-0.376L10,4.095l1.708,4.036l4.381,0.376
	l-3.321,2.877l0.996,4.282L10,13.396L10,13.396z"/>
</svg>
