<?xml version="1.0" encoding="utf-8"?>
<!-- Generator: Adobe Illustrator 15.0.0, SVG Export Plug-In  -->
<!DOCTYPE svg PUBLIC "-//W3C//DTD SVG 1.1//EN" "http://www.w3.org/Graphics/SVG/1.1/DTD/svg11.dtd" [
	<!ENTITY ns_flows "http://ns.adobe.com/Flows/1.0/">
]>
<svg version="1.1"
	 xmlns="http://www.w3.org/2000/svg" xmlns:xlink="http://www.w3.org/1999/xlink" xmlns:a="http://ns.adobe.com/AdobeSVGViewerExtensions/3.0/"
	 x="0px" y="0px" width="22px" height="44px" viewBox="-1 -0.949 22 44" enable-background="new -1 -0.949 22 44"
	 xml:space="preserve">
<defs>
</defs>
<path fill="#FFFFFF" d="M10,0C4.478,0,0,4.478,0,10s4.478,10,10,10s10-4.478,10-10S15.522,0,10,0z M10,18.182
	c-4.519,0-8.182-3.663-8.182-8.182S5.481,1.818,10,1.818S18.182,5.481,18.182,10S14.519,18.182,10,18.182z"/>
<path fill="#FFFFFF" d="M10.909,9.624V4.545c0-0.502-0.407-0.909-0.909-0.909S9.091,4.043,9.091,4.545V10
	c0,0.002,0.001,0.004,0.001,0.006c0,0.058,0.006,0.115,0.017,0.172c0.005,0.028,0.016,0.053,0.023,0.081
	c0.009,0.03,0.016,0.061,0.028,0.09c0.013,0.031,0.031,0.06,0.047,0.089c0.012,0.023,0.022,0.045,0.036,0.067
	c0.034,0.05,0.072,0.097,0.114,0.139l2.571,2.571c0.354,0.354,0.931,0.354,1.285,0c0.355-0.355,0.355-0.932,0-1.285L10.909,9.624z"
	/>
<path fill="#50BD50" d="M10,22.051c-5.522,0-10,4.479-10,10c0,5.523,4.478,10,10,10s10-4.477,10-10
	C20,26.529,15.522,22.051,10,22.051z M10,40.232c-4.519,0-8.182-3.662-8.182-8.182c0-4.518,3.663-8.182,8.182-8.182
	s8.182,3.664,8.182,8.182C18.182,36.57,14.519,40.232,10,40.232z"/>
<path fill="#50BD50" d="M10.909,31.675v-5.078c0-0.502-0.407-0.909-0.909-0.909s-0.909,0.407-0.909,0.909v5.454
	c0,0.002,0.001,0.004,0.001,0.006c0,0.059,0.006,0.115,0.017,0.172c0.005,0.028,0.016,0.054,0.023,0.081
	c0.009,0.03,0.016,0.061,0.028,0.09c0.013,0.031,0.031,0.06,0.047,0.089c0.012,0.023,0.022,0.046,0.036,0.068
	c0.034,0.049,0.072,0.097,0.114,0.139l2.571,2.57c0.354,0.355,0.931,0.355,1.285,0c0.355-0.355,0.355-0.932,0-1.285L10.909,31.675z"
	/>
</svg>
