<?xml version="1.0" encoding="utf-8"?>
<!-- Generator: Adobe Illustrator 15.0.0, SVG Export Plug-In  -->
<!DOCTYPE svg PUBLIC "-//W3C//DTD SVG 1.1//EN" "http://www.w3.org/Graphics/SVG/1.1/DTD/svg11.dtd" [
	<!ENTITY ns_flows "http://ns.adobe.com/Flows/1.0/">
]>
<svg version="1.1"
	 xmlns="http://www.w3.org/2000/svg" xmlns:xlink="http://www.w3.org/1999/xlink" xmlns:a="http://ns.adobe.com/AdobeSVGViewerExtensions/3.0/"
	 x="0px" y="0px" width="40px" height="40px" viewBox="-2.053 -3 40 40" enable-background="new -2.053 -3 40 40"
	 xml:space="preserve">
<defs>
</defs>
<path fill="#A0A0A0" d="M15.2,5.657H2.731l4.292-4.291c0.313-0.313,0.313-0.819,0-1.131c-0.313-0.313-0.819-0.313-1.132,0
	L0.234,5.891l0,0c-0.037,0.037-0.07,0.078-0.1,0.122c-0.013,0.02-0.023,0.042-0.034,0.063C0.087,6.101,0.072,6.125,0.062,6.15
	C0.05,6.178,0.044,6.206,0.036,6.234C0.029,6.256,0.021,6.277,0.016,6.3C0.005,6.352,0,6.404,0,6.457l0,0c0,0,0,0,0,0.001
	C0,6.51,0.005,6.562,0.016,6.613C0.021,6.637,0.03,6.66,0.037,6.683C0.044,6.709,0.05,6.736,0.061,6.762
	c0.012,0.028,0.027,0.053,0.042,0.08c0.01,0.019,0.019,0.04,0.031,0.059c0.03,0.044,0.063,0.085,0.101,0.123l5.656,5.656
	c0.313,0.313,0.819,0.313,1.131,0s0.313-0.819,0-1.132L2.731,7.256H15.2c0.442,0,0.8-0.357,0.8-0.799S15.643,5.657,15.2,5.657z"/>
<path fill="#A0A0A0" d="M0.8,28.257l12.469,0.001l-4.291,4.291c-0.313,0.313-0.313,0.818,0,1.131s0.819,0.313,1.132,0l5.656-5.656
	l0,0c0.037-0.037,0.07-0.078,0.1-0.123c0.013-0.02,0.022-0.041,0.034-0.063c0.014-0.025,0.028-0.049,0.039-0.074
	c0.011-0.027,0.018-0.057,0.025-0.084c0.007-0.021,0.016-0.043,0.021-0.066C15.994,27.563,16,27.51,16,27.457l0,0c0,0,0,0,0-0.002
	c0-0.051-0.006-0.104-0.016-0.154c-0.005-0.023-0.015-0.047-0.021-0.07c-0.008-0.025-0.014-0.053-0.024-0.078
	c-0.012-0.029-0.027-0.055-0.042-0.08c-0.01-0.02-0.019-0.039-0.031-0.059c-0.029-0.045-0.063-0.086-0.101-0.123l-5.656-5.656
	c-0.313-0.313-0.818-0.313-1.131,0s-0.313,0.82,0,1.133l4.291,4.291L0.8,26.657c-0.442,0-0.8,0.357-0.8,0.799
	S0.357,28.257,0.8,28.257z"/>
<path fill="#3090E9" d="M35.086,5.657H22.617l4.291-4.291c0.313-0.313,0.313-0.819,0-1.131c-0.313-0.313-0.819-0.313-1.132,0
	L20.12,5.891l0,0c-0.037,0.037-0.07,0.078-0.1,0.122c-0.013,0.02-0.022,0.042-0.034,0.063c-0.014,0.025-0.028,0.049-0.039,0.075
	c-0.012,0.027-0.018,0.056-0.025,0.083c-0.007,0.022-0.016,0.043-0.021,0.066c-0.011,0.051-0.016,0.104-0.016,0.157l0,0
	c0,0,0,0,0,0.001c0,0.052,0.005,0.104,0.016,0.155c0.005,0.024,0.015,0.046,0.021,0.07c0.008,0.026,0.014,0.053,0.025,0.079
	c0.012,0.028,0.027,0.053,0.041,0.08c0.011,0.019,0.02,0.04,0.031,0.059c0.03,0.044,0.063,0.085,0.102,0.123l5.656,5.656
	c0.313,0.313,0.818,0.313,1.131,0s0.313-0.819,0-1.132l-4.291-4.291h12.469c0.442,0,0.8-0.357,0.8-0.799S35.528,5.657,35.086,5.657z
	"/>
<path fill="#3090E9" d="M20.686,28.257l12.469,0.001l-4.291,4.291c-0.313,0.313-0.313,0.818,0,1.131s0.819,0.313,1.132,0
	l5.656-5.656l0,0c0.037-0.037,0.07-0.078,0.1-0.123c0.013-0.02,0.022-0.041,0.034-0.063c0.014-0.025,0.028-0.049,0.039-0.074
	c0.011-0.027,0.018-0.057,0.025-0.084c0.007-0.021,0.016-0.043,0.021-0.066c0.01-0.051,0.016-0.104,0.016-0.156l0,0c0,0,0,0,0-0.002
	c0-0.051-0.006-0.104-0.016-0.154c-0.005-0.023-0.015-0.047-0.021-0.07c-0.008-0.025-0.014-0.053-0.024-0.078
	c-0.012-0.029-0.027-0.055-0.042-0.08c-0.01-0.02-0.019-0.039-0.031-0.059c-0.029-0.045-0.063-0.086-0.101-0.123l-5.656-5.656
	c-0.313-0.313-0.818-0.313-1.131,0s-0.313,0.82,0,1.133l4.291,4.291l-12.469-0.001c-0.442,0-0.8,0.357-0.8,0.799
	S20.243,28.257,20.686,28.257z"/>
</svg>
