<?xml version="1.0" encoding="utf-8"?>
<!-- Generator: Adobe Illustrator 15.0.0, SVG Export Plug-In  -->
<!DOCTYPE svg PUBLIC "-//W3C//DTD SVG 1.1//EN" "http://www.w3.org/Graphics/SVG/1.1/DTD/svg11.dtd" [
	<!ENTITY ns_flows "http://ns.adobe.com/Flows/1.0/">
]>
<svg version="1.1"
	 xmlns="http://www.w3.org/2000/svg" xmlns:xlink="http://www.w3.org/1999/xlink" xmlns:a="http://ns.adobe.com/AdobeSVGViewerExtensions/3.0/"
	 x="0px" y="0px" width="128px" height="512px" viewBox="-7 -26.228 128 512" enable-background="new -7 -26.228 128 512"
	 xml:space="preserve">
<defs>
</defs>
<path fill="#343E4B" d="M99.25,4c3.3,0,6,2.7,6,6v56c0,3.3-2.7,6-6,6h-86c-3.3,0-6-2.7-6-6V10c0-3.3,2.7-6,6-6H99.25 M99.25,0h-86
	c-5.5,0-10,4.5-10,10v56c0,5.5,4.5,10,10,10h86c5.5,0,10-4.5,10-10V10C109.25,4.5,104.75,0,99.25,0L99.25,0z"/>
<path fill="#62CBDA" d="M40.15,39.4l-24.7,21.3c-0.8,0.7-0.9,2-0.2,2.8s2,0.9,2.8,0.2L43.15,42L40.15,39.4z"/>
<path fill="#62CBDA" d="M72.25,39.5l-3,2.7l24.8,21.7c0.8,0.699,2.101,0.6,2.8-0.2c0.7-0.8,0.601-2.101-0.199-2.8L72.25,39.5z"/>
<path fill="#62CBDA" d="M96.75,12.7c-0.7-0.8-2-0.9-2.8-0.2l-37.7,32.9l-38.2-33c-0.8-0.7-2.1-0.6-2.8,0.2c-0.7,0.8-0.6,2.1,0.2,2.8
	l39.5,34.1c0.399,0.3,0.8,0.5,1.3,0.5s0.9-0.2,1.3-0.5l0,0l39-34.1C97.35,14.8,97.45,13.5,96.75,12.7z"/>
<path fill="#62CBDA" d="M57,134.798c-9.941,0-18,8.06-18,18c0,9.941,8.059,18,18,18s18-8.059,18-18
	C75,142.857,66.941,134.798,57,134.798z M57,166.798c-7.732,0-14-6.268-14-14s6.268-14,14-14c7.731,0,14,6.268,14,14
	S64.731,166.798,57,166.798z"/>
<path fill="#343E4B" d="M83.038,171.392c3.751-5.24,5.962-11.657,5.962-18.594c0-17.673-14.327-32-32-32s-32,14.327-32,32
	c0,6.835,2.156,13.16,5.809,18.357l24.375,39.118c0.004-0.007,0.012-0.013,0.016-0.02c0.322,0.674,1.004,1.144,1.801,1.144
	c0.664,0,1.249-0.328,1.613-0.827c0.002,0.003,0.004,0.005,0.006,0.008l0.038-0.062c0.001-0.001,0.002-0.003,0.003-0.005
	L83.038,171.392z M29,152.798c0-15.464,12.537-28,28-28c15.465,0,28,12.536,28,28c0,5.089-1.402,9.83-3.783,13.938
	c0.036,0.033,0.06,0.076,0.092,0.112l-8.447,13.557c-0.277,0.228-0.562,0.448-0.856,0.658c0.236-0.126,0.462-0.269,0.695-0.4
	l-15.704,25.202l-24.638-39.537c0.03-0.072,0.054-0.148,0.095-0.215C30.279,162.151,29,157.636,29,152.798z"/>
<path fill="none" stroke="#404D5E" stroke-width="4" stroke-miterlimit="10" d="M66.995,310.22c0,0,6.495-3.719,8.194-4.611
	c1.695-0.896,3.454-1.123,4.519-0.472c1.617,0.987,15.18,10.011,16.322,10.811c1.141,0.798,1.692,3.086,0.123,5.326
	c-1.565,2.236-8.78,11.094-11.837,10.998c-3.064-0.099-15.795-0.379-39.803-24.395c-24.004-24.007-24.288-36.741-24.386-39.804
	c-0.098-3.061,8.756-10.277,10.996-11.843c2.243-1.563,4.532-0.975,5.327,0.124c0.906,1.255,9.824,14.774,10.806,16.324
	c0.672,1.059,0.425,2.824-0.471,4.522c-0.893,1.7-4.61,8.195-4.61,8.195s2.621,4.471,11.485,13.333
	C62.528,307.594,66.995,310.22,66.995,310.22z"/>
<path fill="#62CBDA" d="M75,439.272v4c0,3.3-2.7,6-6,6H33.4H32l-1,0.8l-13,10v-6.8v-4h-4h-4c-3.3,0-6-2.7-6-6v-42c0-3.3,2.7-6,6-6
	h23v-4H10c-5.5,0-10,4.5-10,10v42c0,5.5,4.5,10,10,10h4v15l19.4-15H69c5.5,0,10-4.5,10-10v-4H75z"/>
<path fill="#404D5E" d="M104,379.272c3.3,0,6,2.7,6,6v42c0,3.3-2.7,6-6,6h-4h-4v4v6.9l-13-10l-1-0.9h-1.4H45c-3.3,0-6-2.7-6-6v-42
	c0-3.3,2.7-6,6-6H104 M104,375.272H45c-5.5,0-10,4.5-10,10v42c0,5.5,4.5,10,10,10h35.6l19.4,15v-15h4c5.5,0,10-4.5,10-10v-42
	C114,379.772,109.5,375.272,104,375.272L104,375.272z"/>
<circle fill="#62CBDA" cx="69" cy="281.938" r="4"/>
<circle fill="#62CBDA" cx="81" cy="281.938" r="4"/>
<circle fill="#62CBDA" cx="93.123" cy="281.938" r="4"/>
</svg>
