<?xml version="1.0" encoding="utf-8"?>
<!-- Generator: Adobe Illustrator 15.0.0, SVG Export Plug-In  -->
<!DOCTYPE svg PUBLIC "-//W3C//DTD SVG 1.1//EN" "http://www.w3.org/Graphics/SVG/1.1/DTD/svg11.dtd" [
	<!ENTITY ns_flows "http://ns.adobe.com/Flows/1.0/">
]>
<svg version="1.1"
	 xmlns="http://www.w3.org/2000/svg" xmlns:xlink="http://www.w3.org/1999/xlink" xmlns:a="http://ns.adobe.com/AdobeSVGViewerExtensions/3.0/"
	 x="0px" y="0px" width="36px" height="72px" viewBox="0 0 36 72" enable-background="new 0 0 36 72" xml:space="preserve">
<defs>
</defs>
<path d="M27.561,0H8.437C3.777,0,0,3.777,0,8.437v19.124c0,4.659,3.777,8.437,8.437,8.437h19.124c4.659,0,8.437-3.777,8.437-8.437
	V8.437C35.997,3.777,32.22,0,27.561,0z M33.748,27.561c0,3.417-2.771,6.186-6.188,6.186H8.437c-3.417,0-6.188-2.77-6.188-6.186
	V8.437c0-3.417,2.77-6.188,6.188-6.188h19.124c3.417,0,6.188,2.77,6.188,6.188V27.561L33.748,27.561z"/>
<polygon points="19.676,9.249 19.676,9.247 19.07,9.247 19.07,9.249 16.175,9.249 8.44,26.622 11.942,26.622 19.678,9.249 "/>
<polygon points="18.976,15.545 23.907,26.62 27.41,26.62 20.728,11.611 "/>
<path fill="#3090E9" d="M27.561,35.997H8.437C3.777,35.997,0,39.774,0,44.434v19.124c0,4.659,3.777,8.437,8.437,8.437h19.124
	c4.659,0,8.437-3.777,8.437-8.437V44.434C35.997,39.774,32.22,35.997,27.561,35.997z M33.748,63.558
	c0,3.417-2.771,6.186-6.188,6.186H8.437c-3.417,0-6.188-2.77-6.188-6.186V44.434c0-3.417,2.77-6.188,6.188-6.188h19.124
	c3.417,0,6.188,2.771,6.188,6.188V63.558L33.748,63.558z"/>
<polygon fill="#3090E9" points="19.676,45.246 19.676,45.244 19.07,45.244 19.07,45.246 16.175,45.246 8.44,62.618 11.942,62.618 
	19.678,45.246 "/>
<polygon fill="#3090E9" points="18.977,51.542 23.907,62.617 27.41,62.617 20.728,47.607 "/>
</svg>
