<?xml version="1.0" encoding="utf-8"?>
<!-- Generator: Adobe Illustrator 15.0.0, SVG Export Plug-In  -->
<!DOCTYPE svg PUBLIC "-//W3C//DTD SVG 1.1//EN" "http://www.w3.org/Graphics/SVG/1.1/DTD/svg11.dtd" [
	<!ENTITY ns_flows "http://ns.adobe.com/Flows/1.0/">
]>
<svg version="1.1"
	 xmlns="http://www.w3.org/2000/svg" xmlns:xlink="http://www.w3.org/1999/xlink" xmlns:a="http://ns.adobe.com/AdobeSVGViewerExtensions/3.0/"
	 x="0px" y="0px" width="192px" height="48px" viewBox="-2 -2 192 48" enable-background="new -2 -2 192 48" xml:space="preserve">
<defs>
</defs>
<path fill="#FFFFFF" d="M28.799,16.558v-0.005c0.367,0,0.736,0.008,1.106-0.001c0.474-0.012,0.859-0.418,0.859-0.893
	c0-0.706,0-1.413,0-2.119c0-0.507-0.402-0.909-0.907-0.91c-0.705,0-1.409,0-2.114,0c-0.505,0.001-0.906,0.405-0.906,0.912
	c0,0.7-0.003,1.4,0.002,2.101c0,0.105,0.021,0.213,0.054,0.312c0.127,0.373,0.469,0.602,0.887,0.604
	C28.119,16.558,28.46,16.558,28.799,16.558z M22,17.466c-2.481-0.001-4.5,1.996-4.534,4.465c-0.035,2.538,1.995,4.547,4.43,4.598
	c2.531,0.056,4.581-1.969,4.635-4.43C26.585,19.562,24.54,17.464,22,17.466z M13.234,19.885v0.06c0,3.312-0.001,6.622,0,9.934
	c0,0.477,0.412,0.887,0.889,0.887c5.25,0,10.5,0,15.75,0c0.481,0,0.892-0.408,0.892-0.89c0.002-3.308,0-6.616,0-9.921v-0.069H28.63
	c0.303,0.964,0.395,1.944,0.275,2.943c-0.118,1-0.441,1.93-0.965,2.789c-0.524,0.858-1.206,1.573-2.04,2.14
	c-2.157,1.473-5,1.602-7.292,0.313c-1.158-0.647-2.068-1.553-2.703-2.723c-0.945-1.74-1.096-3.566-0.542-5.463
	C14.654,19.885,13.949,19.885,13.234,19.885z M30.95,33.188c0.117-0.02,0.233-0.037,0.35-0.062c0.912-0.192,1.659-0.956,1.838-1.875
	c0.019-0.101,0.033-0.2,0.05-0.3V13.049c-0.015-0.097-0.031-0.196-0.049-0.294c-0.196-1.003-1.022-1.781-2.038-1.92
	c-0.043-0.005-0.083-0.015-0.124-0.022H13.024c-0.107,0.02-0.217,0.034-0.323,0.059c-0.992,0.226-1.725,1.024-1.866,2.028
	c-0.006,0.042-0.015,0.084-0.021,0.125v17.952c0.02,0.112,0.036,0.227,0.062,0.34c0.22,0.97,1.047,1.722,2.032,1.849
	c0.046,0.006,0.095,0.017,0.143,0.021H30.95V33.188z M22,44C9.85,44,0,34.148,0,22C0,9.85,9.85,0,22,0c12.149,0,22,9.85,22,22
	C44,34.148,34.149,44,22,44z"/>
<path fill="#FFFFFF" d="M66.895,33.968h4.944V21.999h3.3l0.438-4.125H71.84l0.006-2.064c0-1.076,0.104-1.653,1.646-1.653h2.063
	v-4.125h-3.3c-3.965,0-5.358,2.001-5.358,5.366v2.477h-2.471V22h2.471v11.968H66.895z M70,44c-12.15,0-22-9.85-22-22
	C48,9.85,57.85,0,70,0c12.15,0,22,9.85,22,22C92,34.15,82.15,44,70,44z"/>
<path fill="#FFFFFF" d="M121.057,13.408c-1.922,0.699-3.135,2.501-2.996,4.474l0.045,0.761l-0.768-0.093
	c-2.797-0.357-5.24-1.568-7.314-3.604l-1.015-1.01l-0.261,0.746c-0.555,1.663-0.2,3.418,0.952,4.599
	c0.614,0.652,0.476,0.746-0.584,0.357c-0.368-0.124-0.691-0.217-0.722-0.171c-0.107,0.109,0.26,1.522,0.553,2.082
	c0.398,0.777,1.213,1.538,2.104,1.989l0.753,0.356l-0.892,0.016c-0.858,0-0.892,0.016-0.8,0.343c0.31,1.011,1.521,2.082,2.875,2.549
	l0.951,0.325l-0.828,0.497c-1.229,0.716-2.674,1.119-4.118,1.147c-0.692,0.018-1.261,0.078-1.261,0.125
	c0,0.155,1.875,1.024,2.966,1.369c3.272,1.01,7.159,0.572,10.079-1.15c2.076-1.229,4.148-3.667,5.117-6.028
	c0.522-1.258,1.045-3.558,1.045-4.66c0-0.715,0.047-0.808,0.908-1.663c0.506-0.497,0.981-1.041,1.074-1.196
	c0.153-0.295,0.139-0.295-0.646-0.032c-1.307,0.466-1.49,0.404-0.844-0.294c0.477-0.498,1.045-1.399,1.045-1.663
	c0-0.046-0.23,0.031-0.492,0.171c-0.276,0.155-0.893,0.388-1.354,0.527l-0.829,0.265l-0.753-0.513
	c-0.415-0.279-0.998-0.59-1.306-0.684C122.962,13.128,121.764,13.159,121.057,13.408z M118,44c-12.15,0-22-9.85-22-22
	c0-12.15,9.85-22,22-22s22,9.85,22,22C140,34.15,130.15,44,118,44z"/>
<path fill="#FFFFFF" d="M166,0c-12.15,0-22,9.85-22,22c0,12.15,9.85,22,22,22s22-9.85,22-22C188,9.85,178.15,0,166,0z
	 M176.295,13.527l-3.735,17.602c-0.26,1.251-1.017,1.55-2.064,0.972l-5.69-4.203c-1.336,1.299-2.533,2.463-2.733,2.66
	c-0.318,0.31-0.57,0.569-1.141,0.569c-0.737,0-0.611-0.278-0.865-0.98l-2.094-6.417l-5.47-1.708
	c-1.216-0.372-1.225-1.207,0.272-1.808l21.935-8.46C175.711,11.299,176.678,11.994,176.295,13.527z"/>
<path fill="#FFFFFF" d="M171.161,15.557l-12.33,7.779l2.077,6.37l0.411-4.385l10.559-9.525
	C172.34,15.384,171.776,15.184,171.161,15.557z"/>
</svg>
