<?xml version="1.0" encoding="utf-8"?>
<!-- Generator: Adobe Illustrator 15.0.0, SVG Export Plug-In  -->
<!DOCTYPE svg PUBLIC "-//W3C//DTD SVG 1.1//EN" "http://www.w3.org/Graphics/SVG/1.1/DTD/svg11.dtd" [
	<!ENTITY ns_flows "http://ns.adobe.com/Flows/1.0/">
]>
<svg version="1.1"
	 xmlns="http://www.w3.org/2000/svg" xmlns:xlink="http://www.w3.org/1999/xlink" xmlns:a="http://ns.adobe.com/AdobeSVGViewerExtensions/3.0/"
	 x="0px" y="0px" width="84px" height="336px" viewBox="-2 -2 84 336" enable-background="new -2 -2 84 336" xml:space="preserve">
<defs>
</defs>
<path fill="#316699" d="M52.362,30.105v-0.01c0.666,0,1.338,0.016,2.009-0.002c0.863-0.021,1.563-0.76,1.563-1.623
	c0-1.284,0-2.569,0-3.853c0-0.922-0.73-1.654-1.647-1.655c-1.282,0-2.563,0-3.845,0c-0.918,0.001-1.647,0.737-1.647,1.658
	c0,1.273-0.005,2.546,0.004,3.82c0,0.191,0.038,0.387,0.098,0.567c0.23,0.678,0.852,1.094,1.612,1.098
	C51.125,30.105,51.746,30.105,52.362,30.105z M40,31.756c-4.511-0.002-8.182,3.629-8.244,8.119c-0.063,4.613,3.627,8.268,8.056,8.36
	c4.601,0.101,8.328-3.579,8.426-8.055C48.336,35.567,44.618,31.752,40,31.756z M24.062,36.154v0.109c0,6.021-0.002,12.039,0,18.062
	c0,0.866,0.749,1.612,1.616,1.612c9.545,0,19.091,0,28.637,0c0.872,0,1.622-0.742,1.622-1.617c0.004-6.014,0-12.03,0-18.039v-0.125
	h-3.883c0.552,1.753,0.719,3.535,0.499,5.352c-0.214,1.818-0.801,3.508-1.754,5.07c-0.952,1.561-2.191,2.861-3.709,3.891
	c-3.922,2.678-9.09,2.912-13.259,0.568c-2.104-1.176-3.759-2.824-4.914-4.951c-1.718-3.164-1.992-6.482-0.986-9.932
	C26.643,36.154,25.362,36.154,24.062,36.154z M56.273,60.341c0.211-0.036,0.425-0.068,0.636-0.112
	c1.657-0.35,3.017-1.738,3.344-3.409c0.032-0.184,0.059-0.365,0.088-0.545v-32.55c-0.027-0.176-0.056-0.356-0.088-0.534
	c-0.355-1.824-1.858-3.238-3.705-3.491c-0.078-0.008-0.152-0.027-0.228-0.04H23.68c-0.194,0.037-0.394,0.062-0.586,0.107
	c-1.804,0.411-3.137,1.861-3.394,3.687c-0.01,0.076-0.027,0.153-0.038,0.227v32.639c0.036,0.205,0.065,0.414,0.113,0.618
	c0.4,1.765,1.903,3.132,3.694,3.363c0.083,0.01,0.173,0.032,0.259,0.039H56.273L56.273,60.341z M40,80C17.91,80,0,62.088,0,40
	C0,17.91,17.91,0,40,0c22.089,0,40,17.91,40,40C80,62.088,62.089,80,40,80z"/>
<path fill="#3A589B" d="M34.354,145.76h8.99v-21.762h5.999l0.798-7.5h-6.796l0.011-3.752c0-1.957,0.19-3.005,2.993-3.005h3.75v-7.5
	h-5.998c-7.209,0-9.743,3.638-9.743,9.756v4.504h-4.492v7.5h4.492v21.76H34.354z M40,164c-22.092,0-40-17.908-40-40
	c0-22.09,17.908-40,40-40c22.091,0,40,17.91,40,40C80,146.092,62.091,164,40,164z"/>
<path fill="#1CB7EB" d="M45.558,192.379c-3.495,1.27-5.699,4.547-5.448,8.133l0.082,1.386l-1.395-0.171
	c-5.085-0.649-9.528-2.852-13.299-6.551l-1.845-1.836l-0.474,1.355c-1.008,3.022-0.364,6.215,1.731,8.362
	c1.116,1.184,0.864,1.354-1.062,0.646c-0.669-0.224-1.257-0.393-1.313-0.31c-0.195,0.199,0.473,2.769,1.005,3.785
	c0.725,1.414,2.206,2.797,3.825,3.617l1.371,0.648l-1.623,0.027c-1.559,0-1.623,0.028-1.457,0.624
	c0.564,1.837,2.767,3.785,5.228,4.634l1.729,0.591l-1.505,0.904c-2.233,1.302-4.862,2.035-7.485,2.087
	c-1.259,0.031-2.294,0.141-2.294,0.227c0,0.281,3.409,1.86,5.395,2.489c5.948,1.836,13.015,1.038,18.324-2.091
	c3.773-2.235,7.542-6.668,9.304-10.961c0.95-2.288,1.899-6.47,1.899-8.473c0-1.301,0.086-1.469,1.651-3.023
	c0.919-0.905,1.785-1.892,1.953-2.176c0.277-0.536,0.252-0.536-1.175-0.058c-2.376,0.847-2.708,0.736-1.535-0.533
	c0.868-0.906,1.899-2.546,1.899-3.025c0-0.083-0.416,0.058-0.895,0.312c-0.501,0.282-1.622,0.704-2.461,0.957l-1.508,0.483
	l-1.368-0.934c-0.754-0.507-1.815-1.073-2.374-1.244C49.022,191.868,46.844,191.926,45.558,192.379z M40,248
	c-22.092,0-40-17.909-40-40c0-22.09,17.908-40,40-40c22.091,0,40,17.91,40,40C80,230.091,62.091,248,40,248z"/>
<path fill="#64A9DC" d="M40,252c-22.092,0-40,17.91-40,40c0,22.091,17.908,40,40,40c22.091,0,40-17.909,40-40
	C80,269.91,62.091,252,40,252z M58.719,276.594l-6.79,32.004c-0.475,2.274-1.851,2.82-3.754,1.77l-10.344-7.644
	c-2.43,2.362-4.606,4.479-4.97,4.838c-0.58,0.563-1.038,1.032-2.076,1.032c-1.339,0-1.112-0.504-1.574-1.781l-3.807-11.667
	l-9.945-3.105c-2.21-0.677-2.228-2.193,0.496-3.287l39.881-15.382C57.656,272.543,59.414,273.808,58.719,276.594z"/>
<path fill="#64A9DC" d="M50.405,280.286L27.986,294.43l3.777,11.582l0.745-7.976l19.201-17.316
	C52.547,279.97,51.52,279.608,50.405,280.286z"/>
</svg>
