<?xml version="1.0" encoding="utf-8"?>
<!-- Generator: Adobe Illustrator 15.0.0, SVG Export Plug-In  -->
<!DOCTYPE svg PUBLIC "-//W3C//DTD SVG 1.1//EN" "http://www.w3.org/Graphics/SVG/1.1/DTD/svg11.dtd" [
	<!ENTITY ns_flows "http://ns.adobe.com/Flows/1.0/">
]>
<svg version="1.1"
	 xmlns="http://www.w3.org/2000/svg" xmlns:xlink="http://www.w3.org/1999/xlink" xmlns:a="http://ns.adobe.com/AdobeSVGViewerExtensions/3.0/"
	 x="0px" y="0px" width="32px" height="128px" viewBox="-1.97 -2 32 128" enable-background="new -1.97 -2 32 128"
	 xml:space="preserve">
<defs>
</defs>
<path fill="#7F7F7F" d="M14.03,25c-0.23,0-0.461-0.079-0.648-0.238c-0.242-0.205-5.941-5.1-8.319-10.438
	c-0.226-0.504,0.002-1.096,0.507-1.32c0.503-0.225,1.095,0.002,1.32,0.507c1.738,3.905,5.576,7.699,7.123,9.13
	c2.73-2.65,8.017-8.573,8.017-12.411c0-4.539-3.589-8.23-8-8.23s-8,3.691-8,8.23c0,0.552-0.448,1-1,1s-1-0.448-1-1
	C4.03,4.589,8.516,0,14.03,0c5.514,0,10,4.589,10,10.23c0,5.912-8.943,14.158-9.325,14.508C14.514,24.912,14.272,25,14.03,25z"/>
<path fill="#7F7F7F" d="M14.03,14c-2.206,0-4-1.794-4-4s1.794-4,4-4s4,1.794,4,4S16.236,14,14.03,14z M14.03,8c-1.104,0-2,0.896-2,2
	s0.896,2,2,2c1.104,0,2-0.896,2-2S15.133,8,14.03,8z"/>
<path fill="#7F7F7F" d="M27.03,28h-26c-0.355,0-0.686-0.189-0.865-0.498c-0.179-0.309-0.18-0.688-0.003-0.998l4-7
	c0.274-0.479,0.886-0.646,1.364-0.372c0.478,0.274,0.646,0.886,0.372,1.364L2.753,26h22.552l-3.145-5.504
	c-0.273-0.479-0.107-1.09,0.372-1.364c0.479-0.276,1.09-0.106,1.364,0.372l4,7c0.177,0.311,0.176,0.689-0.003,0.998
	S27.385,28,27.03,28z"/>
<path fill="#7F7F7F" d="M27.03,57h-26c-0.552,0-1-0.447-1-1V40c0-0.552,0.448-1,1-1s1,0.448,1,1v15h24V37h-25c-0.552,0-1-0.448-1-1
	s0.448-1,1-1h26c0.553,0,1,0.448,1,1v20C28.03,56.553,27.583,57,27.03,57z"/>
<path fill="#7F7F7F" d="M14.03,48c-0.256,0-0.512-0.098-0.707-0.293l-8-8c-0.391-0.391-0.391-1.023,0-1.414s1.023-0.391,1.414,0
	l7.293,7.293l7.293-7.293c0.391-0.391,1.023-0.391,1.414,0s0.391,1.023,0,1.414l-8,8C14.542,47.902,14.286,48,14.03,48z"/>
<path fill="#7F7F7F" d="M22.031,52c-0.256,0-0.512-0.098-0.707-0.293l-3.002-3.002c-0.392-0.391-0.392-1.023,0-1.414
	c0.392-0.391,1.022-0.391,1.414,0l3.002,3.002c0.392,0.391,0.392,1.023,0,1.414C22.543,51.902,22.287,52,22.031,52z"/>
<path fill="#7F7F7F" d="M6.031,52c-0.256,0-0.512-0.098-0.707-0.293c-0.391-0.391-0.391-1.023,0-1.414l2.999-2.999
	c0.391-0.392,1.023-0.392,1.414,0c0.391,0.392,0.391,1.022,0,1.414l-2.999,2.999C6.543,51.902,6.287,52,6.031,52z"/>
<path fill="#7F7F7F" d="M12.656,80.383c-0.256,0-0.512-0.099-0.707-0.293l-4.171-4.17c-0.188-0.188-0.293-0.441-0.293-0.707
	s0.105-0.521,0.293-0.707l2.434-2.434c0.759-0.76,0.759-1.997,0-2.758l-2.78-2.779c-0.737-0.736-2.021-0.736-2.758,0
	c-0.044,0.045-0.093,0.084-0.145,0.119c-0.115,0.08-2.906,2.076-2.448,6.199c0.061,0.549-0.334,1.043-0.883,1.104
	c-0.544,0.063-1.043-0.334-1.104-0.883c-0.554-4.979,2.649-7.588,3.227-8.014c1.497-1.437,4.051-1.412,5.524,0.061l2.781,2.779
	c1.539,1.539,1.539,4.045,0,5.584L9.9,75.213l3.463,3.463c0.392,0.391,0.392,1.022,0,1.414
	C13.169,80.285,12.912,80.383,12.656,80.383z"/>
<path fill="#7F7F7F" d="M7.79,85.248c-0.256,0-0.512-0.098-0.707-0.293c-2.457-2.457-4.296-4.854-5.467-7.127
	c-0.253-0.492-0.06-1.096,0.431-1.348c0.493-0.254,1.094-0.06,1.347,0.432C4.47,79,6.186,81.23,8.497,83.541
	c0.391,0.393,0.391,1.023,0,1.414C8.301,85.15,8.046,85.248,7.79,85.248z"/>
<path fill="#7F7F7F" d="M20.022,91.965c-3.938,0-8.299-2.369-12.984-7.056c-0.391-0.392-0.391-1.022,0-1.413
	c0.391-0.393,1.023-0.393,1.414,0c4.539,4.539,8.778,6.762,12.284,6.436c3.09-0.291,4.588-2.445,4.603-2.469
	c0.035-0.051,0.075-0.102,0.121-0.145c0.367-0.367,0.57-0.857,0.57-1.379c0-0.521-0.203-1.01-0.57-1.377l-2.781-2.781
	c-0.366-0.367-0.856-0.57-1.379-0.57l0,0c-0.521,0-1.011,0.203-1.377,0.57l-2.436,2.434c-0.391,0.391-1.023,0.391-1.414,0
	l-4.169-4.17c-0.392-0.391-0.392-1.021,0-1.414c0.392-0.391,1.022-0.391,1.414,0l3.462,3.463l1.727-1.727
	c0.746-0.746,1.736-1.156,2.793-1.156l0,0c1.057,0,2.047,0.41,2.793,1.155l2.78,2.782c0.746,0.746,1.157,1.736,1.157,2.791
	c0,1.026-0.389,1.994-1.098,2.731c-0.363,0.492-2.326,2.902-6.008,3.25C20.627,91.951,20.325,91.965,20.022,91.965z"/>
<path fill="#7F7F7F" d="M20.944,103.688l-11.953,7.541l2.015,6.176l0.399-4.25l10.236-9.235c0.283-0.252,0.17-0.423-0.104-0.423
	C21.377,103.497,21.165,103.555,20.944,103.688z"/>
<path fill="#7F7F7F" d="M27.323,99.007c-0.566-0.725-1.427-1.141-2.362-1.141c-0.453,0-0.903,0.096-1.339,0.283l-14.458,5.577
	c0.036,0.072,0.057,0.152,0.081,0.23c0.45,0.332,0.636,0.919,0.561,1.466c0.014,0.062,0.035,0.12,0.04,0.185l14.539-5.608
	c0.197-0.089,0.393-0.133,0.576-0.133c0.721,0,1.256,0.668,0.96,1.853l-3.62,17.064c-0.17,0.819-0.56,1.217-1.107,1.217
	c-0.264,0-0.563-0.092-0.894-0.273l-5.517-4.076c-1.295,1.26-2.456,2.388-2.651,2.579c-0.307,0.3-0.551,0.552-1.104,0.552
	c-0.714,0-0.593-0.27-0.839-0.951l-2.029-6.222l-5.304-1.653c-1.178-0.363-1.187-1.17,0.265-1.754l3.293-1.271
	c-0.001-0.008-0.001-0.017-0.002-0.024c-0.625-0.314-0.867-1.055-0.728-1.704c-0.02-0.037-0.051-0.068-0.066-0.108l-3.217,1.241
	c-2.242,0.902-2.424,2.381-2.399,2.976c0.019,0.441,0.236,1.931,2.265,2.556l4.312,1.344l1.708,5.24l0.01,0.03l0.011,0.03
	c0.034,0.095,0.057,0.177,0.077,0.248c0.378,1.342,1.268,2.022,2.644,2.022c1.356,0,2.088-0.717,2.482-1.102
	c0.148-0.146,0.678-0.66,1.386-1.35l0.064-0.063l4.151,3.067l0.107,0.079l0.117,0.064c0.629,0.346,1.254,0.521,1.857,0.521
	c1.2,0,2.635-0.738,3.065-2.81l3.612-17.026C28.163,100.954,27.968,99.834,27.323,99.007z"/>
<circle fill="#7F7F7F" cx="9.564" cy="104.65" r="1"/>
<circle fill="#7F7F7F" cx="5.97" cy="106.025" r="1"/>
</svg>
