<?xml version="1.0" encoding="utf-8"?>
<!-- Generator: Adobe Illustrator 15.0.0, SVG Export Plug-In  -->
<!DOCTYPE svg PUBLIC "-//W3C//DTD SVG 1.1//EN" "http://www.w3.org/Graphics/SVG/1.1/DTD/svg11.dtd" [
	<!ENTITY ns_flows "http://ns.adobe.com/Flows/1.0/">
]>
<svg version="1.1"
	 xmlns="http://www.w3.org/2000/svg" xmlns:xlink="http://www.w3.org/1999/xlink" xmlns:a="http://ns.adobe.com/AdobeSVGViewerExtensions/3.0/"
	 x="0px" y="0px" width="20px" height="40px" viewBox="-2 -1.5 20 40" enable-background="new -2 -1.5 20 40" xml:space="preserve">
<defs>
</defs>
<path fill="#3090E9" d="M10.076,11.129c-0.059-0.643-0.037-1.033-0.037-1.626c0.309-0.151,0.857-1.097,0.952-1.922
	c0.241-0.021,0.623-0.229,0.733-1.112c0.06-0.473-0.181-0.735-0.324-0.819c0.393-1.122,1.209-4.591-1.512-4.949
	C9.609,0.234,8.893,0,7.96,0C4.232,0.065,3.783,2.673,4.6,5.658C4.454,5.742,4.216,6.009,4.275,6.483
	C4.387,7.367,4.768,7.59,5.009,7.61c0.093,0.823,0.666,1.8,0.974,1.953c0,0.59,0.023,0.926-0.038,1.566
	C5.207,13.014,0.23,13.167,0,16h16C15.77,13.167,10.813,13.014,10.076,11.129z"/>
<path fill="#FFFFFF" d="M10.076,31.629c-0.059-0.643-0.037-1.033-0.037-1.626c0.309-0.151,0.857-1.097,0.952-1.922
	c0.241-0.021,0.623-0.229,0.733-1.112c0.06-0.473-0.182-0.734-0.324-0.818c0.393-1.123,1.209-4.592-1.512-4.949
	C9.609,20.734,8.893,20.5,7.96,20.5c-3.728,0.064-4.177,2.673-3.36,5.658c-0.146,0.084-0.384,0.351-0.325,0.824
	c0.112,0.885,0.493,1.107,0.734,1.127c0.093,0.824,0.666,1.801,0.974,1.953c0,0.59,0.023,0.927-0.038,1.566
	C5.207,33.514,0.23,33.667,0,36.5h16C15.77,33.667,10.813,33.514,10.076,31.629z"/>
</svg>
